Format : AVI
Format/Info : Audio Video Interleave
File size : 1.11 GiB
Duration : 1h 42mn
Overall bit rate : 1 558 Kbps
Writing application : VirtualDubMod 1.5.10.3 | www.virtualdub-fr.org || (build 2550/release)
Writing library : VirtualDub build 32842/release

Video
ID : 0
Format : MPEG-4 Visual
Format profile : Advanced Simple@L5
Format settings, BVOP : 2
Format settings, QPel : No
Format settings, GMC : No warppoints
Format settings, Matrix : Default (H.263)
Muxing mode : Packed bitstream
Codec ID : XVID
Codec ID/Hint : XviD
Duration : 1h 42mn
Bit rate : 1 100 Kbps
Width : 720 pixels
Height : 304 pixels
Display aspect ratio : 2.35:1
Frame rate : 23.976 fps
Color space : YUV
Chroma subsampling : 4:2:0
Bit depth : 8 bits
Scan type : Progressive
Compression mode : Lossy
Bits/(Pixel*Frame) : 0.210
Stream size : 806 MiB (71%)
Writing library : XviD 64

Audio
ID : 1
Format : AC-3
Format/Info : Audio Coding 3
Mode extension : CM (complete main)
Codec ID : 2000
Duration : 1h 42mn
Bit rate mode : Constant
Bit rate : 448 Kbps
Channel(s) : 6 channels
Channel positions : Front: L C R, Side: L R, LFE
Sampling rate : 48.0 KHz
Bit depth : 16 bits
Compression mode : Lossy
Stream size : 328 MiB (29%)
Alignment : Split accross interleaves
Interleave, duration : 42 ms (1.00 video frame)
Interleave, preload duration : 500 ms





 
http://www.imdb.com/title/tt1591095/







Users: 7.1/10 (13,383 votes) 274 reviews | Critics: 215 reviews Metascore: 52/100 (based on 30 reviews from Metacritic.com)

A family looks to prevent evil spirits from trapping their comatose child in a realm called The Further.
Director:
James Wan
Writer:
Leigh Whannell
Stars:
Patrick Wilson, Rose Byrne and Ty Simpkin

















Source Used


VIDEO: ..................... ASTRAL RUSSIAN 1080p Thanks

AUDIO: ..................... ASTRAL RUSSIAN 1080p Thanks

Greetz to IMAGiNE,Flawl3ss,DiLLoN,BDK,NOiR,TOXiC,THC,Ez,Rx,Boobyblue,TaRiQ786,LKRG,EP1C